<?xml version="1.0" encoding="utf-8"?>
<!-- Generator: Adobe Illustrator 20.1.0, SVG Export Plug-In . SVG Version: 6.00 Build 0)  -->
<svg version="1.1" xmlns="http://www.w3.org/2000/svg" xmlns:xlink="http://www.w3.org/1999/xlink" x="0px" y="0px"
	 viewBox="0 0 1920 1080" style="enable-background:new 0 0 1920 1080;" xml:space="preserve">
<style type="text/css">
	.st0{fill:#F4F4F5;}
	.st1{fill:none;}
	.st2{fill:#404040;}
	.st3{fill:#404040;}
</style>
<g id="Layer_2">
	<path class="st0" d="M0,0v1080h1920V0H0z M1030.1,730l-0.7-0.2l0.1,0.2l-111.2-30.8L854,455.3L667.6,691.2l-92.3-36.5l252.3-299.5
		l81,31l97.5,277.3l236.1-96.5c0,0-136.2-179.1-125.2-177.1s103.9-14.7,103.9-14.7l99.3,218.8L1030.1,730z"/>
</g>
<g id="Layer_6">
</g>
<g id="Layer_1">
</g>
<g id="Layer_4">
</g>
<g id="Layer_3">
</g>
<g id="Layer_5">
	<polygon class="st1" points="876.9,542.2 871,519.8 864.9,527.1 	"/>
	<polygon class="st2" points="935.7,443.5 928.8,443.5 930.8,449.2 	"/>
	<g>
		<path class="st3" d="M771.3,621.7h-43l-11.2-30.2h-76.4l-11.2,30.2h-43L655,443.5h47.6L771.3,621.7z M706.6,558.1l-27.8-76.7
			L651,558.1H706.6z"/>
		<g>
			<polygon class="st3" points="1074.1,621.7 1119.6,621.7 1054.9,530.1 1115.6,443.5 1069.9,443.5 1029.5,504.4 988.6,443.5 
				943.4,443.5 1004.1,530.3 974.2,572.6 989.1,615.1 1029.5,556.5 			"/>
		</g>
		<polygon class="st3" points="864.9,527.1 871,519.8 860.4,479.4 825.8,522.8 825.8,443.5 787.9,443.5 787.9,621.7 825.8,621.7 
			825.8,566.9 839.7,550.1 893.7,621.7 897.9,621.7 876.9,542.2 		"/>
		<path class="st3" d="M1273.2,624.9c-31.7,0-57-9.4-75.9-28.3l20.8-29.7c15.5,16.2,34.4,24.3,56.7,24.3c10,0,17.6-1.9,23-5.7
			c5.3-3.8,8-8.5,8-14c0-4.8-2.5-8.8-7.6-11.9c-5.1-3.1-11.4-5.4-19-6.8c-7.6-1.4-15.8-3.4-24.7-6c-8.9-2.6-17.2-5.6-24.7-9
			c-7.6-3.4-13.9-8.7-19-16c-5.1-7.3-7.6-16.2-7.6-26.7c0-15.3,6.1-28.2,18.4-38.6c12.3-10.4,28.7-15.6,49.2-15.6
			c28.3,0,51.5,8.3,69.5,24.9l-21.1,28.3c-14.1-13-31.4-19.5-51.9-19.5c-7.8,0-14,1.6-18.4,4.8c-4.5,3.2-6.7,7.5-6.7,12.8
			c0,4.3,2.5,7.8,7.6,10.7c5.1,2.9,11.4,5,19,6.5c7.6,1.5,15.8,3.6,24.6,6.3s17,5.7,24.6,9.2c7.6,3.5,13.9,8.9,19,16.2
			c5.1,7.3,7.6,16.2,7.6,26.7c0,17.1-6.1,30.9-18.3,41.4C1314.1,619.7,1296.4,624.9,1273.2,624.9z"/>
		<path class="st3" d="M1174.4,621.7h-38V443.5h38V621.7z"/>
	</g>
</g>
</svg>
