<?xml version="1.0" encoding="utf-8"?>
<!-- Generator: Adobe Illustrator 20.1.0, SVG Export Plug-In . SVG Version: 6.00 Build 0)  -->
<svg version="1.1" id="Laag_1" xmlns="http://www.w3.org/2000/svg" xmlns:xlink="http://www.w3.org/1999/xlink" x="0px" y="0px"
	 viewBox="0 0 769.3 374.8" style="enable-background:new 0 0 769.3 374.8;" xml:space="preserve">
<style type="text/css">
	.st0{fill:#FFFFFF;}
</style>
<title>logo-dark</title>
<g>
	<path class="st0" d="M195.9,263.2h-43L141.7,233H65.2L54,263.2H11L79.7,85h47.6L195.9,263.2z M131.2,199.6l-27.8-76.7l-27.8,76.7
		H131.2z"/>
	<path class="st0" d="M544.2,263.2h-45.4L454.1,198l-44.9,65.2H364l64.7-91.4L368,85h45.2l40.9,60.9L494.5,85h45.7l-60.7,86.6
		L544.2,263.2z"/>
	<path class="st0" d="M365.1,263.2h-46.8l-54-71.6l-13.9,16.8v54.8h-38V85h38v79.4L313.5,85h46.8l-70.8,83.7L365.1,263.2z"/>
	<path class="st0" d="M697.9,266.5c-31.7,0-57-9.4-75.9-28.3l20.8-29.7c15.5,16.2,34.4,24.3,56.7,24.3c10,0,17.6-1.9,23-5.7
		s8-8.5,8-14c0-4.8-2.5-8.8-7.6-11.9c-5.9-3.4-12.3-5.7-19-6.8c-8.3-1.6-16.6-3.6-24.7-6c-8.4-2.4-16.7-5.4-24.7-9
		c-7.7-3.5-14.3-9-19-16c-5.1-7.3-7.6-16.2-7.6-26.7c0-15.3,6.1-28.2,18.4-38.6s28.7-15.6,49.2-15.6c28.3,0,51.5,8.3,69.5,24.9
		l-21.1,28.3c-14.1-13-31.4-19.5-51.9-19.5c-7.8,0-14,1.6-18.4,4.8c-4.3,2.8-6.8,7.7-6.7,12.8c0,4.3,2.5,7.8,7.6,10.7s11.4,5,19,6.5
		c8.3,1.7,16.5,3.8,24.6,6.3c8.4,2.5,16.6,5.6,24.6,9.2c7.7,3.6,14.2,9.2,19,16.2c5.1,7.3,7.6,16.2,7.6,26.7
		c0,17.1-6.1,30.9-18.3,41.4C738.7,261.2,721,266.5,697.9,266.5z"/>
	<path class="st0" d="M599,263.2h-38V85h38V263.2z"/>
</g>
</svg>
